<svg xmlns="http://www.w3.org/2000/svg" xmlns:xlink="http://www.w3.org/1999/xlink" width="800" zoomAndPan="magnify" viewBox="0 0 600 449.999984" height="600" preserveAspectRatio="xMidYMid meet" version="1.0"><defs><g/></defs><path fill="#ff3131" d="M 338.382812 95.007812 C 333.484375 80.65625 315.039062 86.554688 304.078125 84.613281 C 295.011719 83.011719 286.851562 76.324219 277.800781 73.988281 C 260.695312 69.574219 236.035156 77.9375 226.378906 92.820312 C 216.539062 107.988281 215.542969 129.625 219.582031 146.742188 C 221.066406 153.039062 224.511719 158.660156 226.050781 164.960938 C 228.902344 176.605469 230.046875 191.601562 229.429688 203.578125 C 228.855469 214.691406 215.355469 232.476562 221.953125 242.925781 C 225.824219 249.058594 234.289062 252.21875 240.578125 255.15625 C 257.628906 263.113281 275.910156 265.753906 294.46875 265.746094 C 301.371094 265.742188 314.359375 263.550781 319.90625 258.960938 C 322.800781 256.570312 322.117188 251.371094 322.535156 248.027344 C 323.636719 239.179688 323.6875 228.179688 328.230469 220.339844 C 339.550781 200.808594 353.871094 182.96875 366.457031 164.230469 C 372.179688 155.710938 380.105469 146.007812 382.519531 135.8125 C 385.035156 125.199219 384.054688 108.441406 376.0625 100.355469 C 366.667969 90.847656 351.863281 91.199219 340.082031 94.683594 M 296.78125 86.265625 C 282.550781 90.683594 272.714844 112.316406 272.691406 126.339844 C 272.523438 130.84375 270.9375 139.070312 275.613281 141.644531 C 273.570312 125.507812 276.765625 101.375 291.796875 91.472656 C 302.148438 84.648438 325.683594 83.519531 334.449219 93.625 C 339.890625 99.898438 339.929688 109.773438 338.980469 117.597656 C 337.429688 130.355469 326.605469 138.746094 321.597656 149.660156 C 330.730469 147.09375 341.210938 126.769531 341.691406 117.597656 C 342.171875 108.375 337.777344 98.789062 349.332031 95.683594 C 372.441406 89.472656 380.621094 110.65625 379.722656 128.9375 C 378.726562 135.734375 374.921875 145.933594 371.191406 151.84375 C 362.839844 165.078125 354.636719 179.441406 344.257812 191.191406 C 340.949219 194.941406 331.09375 211.234375 324.96875 203.859375 C 322.871094 201.335938 325.589844 197.800781 326.929688 195.5625 C 331.5625 187.855469 336.820312 180.816406 341.304688 172.976562 C 332.335938 177.378906 330.351562 192.128906 320.867188 197.742188 C 315.898438 200.6875 306.023438 196.320312 305.039062 190.453125 C 304.039062 184.453125 307.726562 176.519531 310.648438 171.519531 C 304.09375 176.347656 305.75 185.535156 300.144531 189.921875 C 297.207031 192.222656 291.847656 190.5 288.671875 189.710938 C 285.257812 188.863281 279.984375 188.472656 277.511719 185.71875 C 275.675781 183.667969 276.347656 179.875 276.34375 177.347656 C 276.332031 171.667969 275.601562 166.058594 274.152344 160.589844 C 274.152344 160.589844 275.789062 178.984375 272.066406 183.675781 C 268.539062 188.117188 254.109375 186.730469 253.003906 181.707031 L 251.523438 164.960938 C 249.605469 170.21875 251.273438 175.886719 249.355469 180.976562 C 248.203125 184.050781 241.617188 188.363281 239.558594 183.785156 C 237.695312 179.652344 238.742188 172.425781 238.308594 167.875 C 237.707031 161.523438 235.617188 154.414062 234.007812 148.199219 C 234.007812 148.199219 236.085938 167.476562 236.195312 176.617188 C 236.242188 180.59375 235.042969 189.464844 232.304688 185.371094 C 229.269531 177.503906 230.21875 172.785156 228.242188 164.707031 C 226.757812 158.648438 223.496094 151.300781 221.949219 145.285156 C 217.886719 129.511719 219.519531 110.765625 227.683594 96.464844 C 238.203125 78.042969 266.5625 70.785156 285.101562 79.519531 C 288.957031 81.335938 294.363281 82.582031 296.78125 86.261719 M 250.792969 115.410156 L 251.363281 116.378906 C 252.226562 105.566406 259.117188 91.179688 270.503906 88.449219 C 259.273438 83.789062 247.058594 106.390625 250.792969 115.410156 M 357.363281 107.394531 C 359.78125 113.277344 362.140625 118.6875 360.910156 125.242188 C 360.445312 130.46875 357.074219 136.484375 355.902344 141.640625 C 363.5625 135.285156 367.164062 113.933594 357.363281 107.394531 M 320.136719 251.671875 C 292.855469 237.339844 253.445312 229.800781 223.058594 237.824219 C 223.578125 226.457031 230.847656 216.425781 231.75 205.035156 C 232.054688 201.179688 230.769531 194.074219 233.710938 190.972656 C 238.21875 186.21875 249.230469 187.480469 255.175781 187.550781 C 274.757812 187.785156 296.316406 191.429688 313.566406 201.082031 C 317.957031 203.539062 324.910156 205.769531 327.714844 210.167969 C 330.210938 214.082031 325.320312 218.851562 324.046875 222.523438 C 321.121094 230.984375 320.144531 242.710938 320.136719 251.671875 M 313.835938 252.570312 C 317.371094 254.804688 319.597656 256.605469 316.515625 258.46875 C 298.496094 267.003906 277.171875 262.707031 258.824219 256.175781 C 254.097656 254.492188 240.488281 251.109375 240.976562 244.414062 C 241.488281 237.351562 253.21875 238.476562 257.699219 238.476562 C 277.210938 239.285156 296.039062 242.945312 313.835938 252.570312 Z M 313.835938 252.570312 " fill-opacity="1" fill-rule="nonzero"/><g fill="#ff3131" fill-opacity="1"><g transform="translate(44.644639, 332.879034)"><g><path d="M 5.21875 0 L 11.34375 0 L 11.34375 -18.625 L 28.328125 -18.625 L 28.328125 -24.324219 L 11.34375 -24.324219 L 11.34375 -36.882812 L 30.511719 -36.882812 L 30.511719 -42.828125 L 5.21875 -42.828125 Z M 5.21875 0 "/></g></g></g><g fill="#ff3131" fill-opacity="1"><g transform="translate(76.491063, 332.879034)"><g><path d="M 2.125 -21.230469 C 2.125 -8.976562 11.890625 0.789062 24.144531 0.789062 C 36.398438 0.789062 46.226562 -8.976562 46.226562 -21.230469 C 46.226562 -33.484375 36.398438 -43.3125 24.144531 -43.3125 C 11.890625 -43.3125 2.125 -33.484375 2.125 -21.230469 Z M 8.433594 -21.230469 C 8.433594 -29.96875 15.410156 -37.003906 24.144531 -37.003906 C 32.878906 -37.003906 39.917969 -29.96875 39.917969 -21.230469 C 39.917969 -12.496094 32.878906 -5.519531 24.144531 -5.519531 C 15.410156 -5.519531 8.433594 -12.496094 8.433594 -21.230469 Z M 8.433594 -21.230469 "/></g></g></g><g fill="#ff3131" fill-opacity="1"><g transform="translate(125.261593, 332.879034)"><g><path d="M 20.6875 -21.535156 L 13.527344 -21.535156 L 13.527344 -18.625 L 28.996094 0 L 36.945312 0 L 23.539062 -15.953125 C 30.816406 -17.226562 34.515625 -22.929688 34.515625 -28.9375 C 34.515625 -35.667969 29.90625 -43.011719 20.6875 -43.011719 L 5.21875 -43.011719 L 5.21875 0 L 11.285156 0 L 11.285156 -36.824219 L 20.6875 -36.824219 C 25.84375 -36.824219 28.390625 -32.574219 28.390625 -28.9375 C 28.390625 -25.234375 25.84375 -21.535156 20.6875 -21.535156 Z M 20.6875 -21.535156 "/></g></g></g><g fill="#ff3131" fill-opacity="1"><g transform="translate(161.414882, 332.879034)"><g><path d="M 22.871094 -42.886719 L 5.21875 -42.886719 L 5.21875 0 L 24.386719 0 C 32.515625 0 36.699219 -6.429688 36.699219 -12.800781 C 36.699219 -16.804688 34.941406 -21.292969 30.089844 -23.355469 C 33 -25.539062 34.335938 -28.632812 34.335938 -31.726562 C 34.335938 -37.367188 29.90625 -42.886719 22.871094 -42.886719 Z M 22.75 -25.539062 L 11.285156 -25.539062 L 11.285156 -37.066406 L 22.871094 -37.066406 C 26.328125 -37.066406 27.964844 -34.335938 27.964844 -31.484375 C 27.964844 -28.570312 26.144531 -25.539062 22.75 -25.539062 Z M 24.386719 -5.945312 L 11.285156 -5.945312 L 11.285156 -19.472656 L 24.386719 -19.472656 C 28.511719 -19.472656 30.574219 -16.074219 30.574219 -12.738281 C 30.574219 -9.402344 28.511719 -5.945312 24.386719 -5.945312 Z M 24.386719 -5.945312 "/></g></g></g><g fill="#ff3131" fill-opacity="1"><g transform="translate(200.358529, 332.879034)"><g><path d="M 31.121094 -6.125 L 11.40625 -6.125 L 11.40625 -18.625 L 30.632812 -18.625 L 30.632812 -24.8125 L 11.40625 -24.8125 L 11.40625 -36.761719 L 31.058594 -36.761719 L 31.058594 -42.886719 L 5.21875 -42.886719 L 5.21875 0 L 31.121094 0 Z M 31.121094 -6.125 "/></g></g></g><g fill="#ff3131" fill-opacity="1"><g transform="translate(234.206744, 332.879034)"><g><path d="M 26.449219 -31.484375 L 32.515625 -31.726562 C 31.421875 -39.492188 24.628906 -42.886719 18.078125 -42.886719 C 13.164062 -42.886719 8.066406 -40.949219 5.21875 -37.246094 C 3.640625 -35.183594 2.851562 -32.757812 2.851562 -30.210938 C 2.851562 -29.90625 2.910156 -29.542969 2.910156 -29.179688 L 2.910156 -29.238281 C 3.578125 -20.382812 11.34375 -18.925781 17.957031 -18.257812 C 22.203125 -17.835938 26.570312 -17.289062 27.296875 -14.074219 C 27.417969 -13.527344 27.480469 -13.042969 27.480469 -12.617188 C 27.480469 -8.25 22.507812 -5.703125 17.957031 -5.703125 C 14.011719 -5.703125 9.222656 -7.765625 8.796875 -11.707031 L 8.796875 -11.464844 L 8.734375 -12.375 L 2.546875 -12.253906 L 2.609375 -11.101562 C 3.398438 -3.519531 11.34375 0.363281 17.894531 0.363281 C 25.539062 0.363281 33.667969 -4.367188 33.667969 -12.558594 C 33.667969 -13.40625 33.546875 -14.4375 33.363281 -15.347656 C 31.726562 -22.140625 24.507812 -23.660156 18.683594 -24.386719 C 13.953125 -24.8125 9.039062 -25.417969 9.039062 -30.332031 C 9.039062 -31.542969 9.34375 -32.757812 10.070312 -33.667969 C 11.828125 -35.914062 15.042969 -36.882812 17.957031 -36.882812 C 21.597656 -36.882812 25.601562 -35.246094 26.449219 -31.484375 Z M 26.449219 -31.484375 "/></g></g></g><g fill="#000000" fill-opacity="1"><g transform="translate(292.149705, 332.879034)"><g><path d="M 11.285156 0 L 11.285156 -42.464844 L 5.21875 -42.464844 L 5.21875 0 Z M 27.238281 -42.464844 L 12.4375 -22.75 L 12.4375 -19.65625 L 28.632812 0 L 36.519531 0 L 18.625 -21.351562 L 34.820312 -42.464844 Z M 27.238281 -42.464844 "/></g></g></g><g fill="#000000" fill-opacity="1"><g transform="translate(328.302994, 332.879034)"><g><path d="M 19.230469 -37.1875 L 27.117188 -37.1875 L 27.117188 -42.828125 L 5.21875 -42.828125 L 5.21875 -37.1875 L 13.101562 -37.1875 L 13.101562 -5.703125 L 5.21875 -5.703125 L 5.21875 0 L 27.117188 0 L 27.117188 -5.703125 L 19.230469 -5.703125 Z M 19.230469 -37.1875 "/></g></g></g><g fill="#000000" fill-opacity="1"><g transform="translate(360.57405, 332.879034)"><g><path d="M 13.222656 -37.066406 L 13.222656 0 L 19.351562 0 L 19.351562 -37.066406 L 32.152344 -37.066406 L 32.152344 -42.886719 L 0.363281 -42.886719 L 0.363281 -37.066406 Z M 13.222656 -37.066406 "/></g></g></g><g fill="#000000" fill-opacity="1"><g transform="translate(393.148413, 332.879034)"><g><path d="M 2.367188 -21.109375 C 2.367188 -15.226562 4.914062 -9.828125 8.554688 -5.945312 C 12.253906 -2.0625 17.59375 0.304688 23.355469 0.304688 C 33.242188 0.304688 41.007812 -6.25 43.433594 -15.894531 L 37.429688 -15.894531 C 35.246094 -9.464844 29.785156 -5.761719 23.355469 -5.761719 C 19.289062 -5.761719 15.226562 -7.460938 12.558594 -10.253906 C 9.886719 -13.042969 8.3125 -16.863281 8.3125 -21.109375 C 8.3125 -25.476562 9.949219 -29.238281 12.617188 -32.03125 C 15.285156 -34.820312 19.289062 -36.761719 23.355469 -36.761719 C 29.601562 -36.761719 34.820312 -33.363281 37.066406 -26.996094 L 43.132812 -26.996094 C 40.703125 -36.578125 33.0625 -42.828125 23.355469 -42.828125 C 17.59375 -42.828125 12.070312 -40.160156 8.371094 -36.335938 C 4.730469 -32.453125 2.367188 -27.117188 2.367188 -21.109375 Z M 2.367188 -21.109375 "/></g></g></g><g fill="#000000" fill-opacity="1"><g transform="translate(438.885954, 332.879034)"><g><path d="M 29.300781 -25.601562 L 11.34375 -25.601562 L 11.34375 -42.828125 L 5.21875 -42.828125 L 5.21875 0 L 11.34375 0 L 11.34375 -19.535156 L 29.300781 -19.535156 L 29.300781 0 L 35.488281 0 L 35.488281 -42.828125 L 29.300781 -42.828125 Z M 29.300781 -25.601562 "/></g></g></g><g fill="#000000" fill-opacity="1"><g transform="translate(479.588738, 332.879034)"><g><path d="M 31.121094 -6.125 L 11.40625 -6.125 L 11.40625 -18.625 L 30.632812 -18.625 L 30.632812 -24.8125 L 11.40625 -24.8125 L 11.40625 -36.761719 L 31.058594 -36.761719 L 31.058594 -42.886719 L 5.21875 -42.886719 L 5.21875 0 L 31.121094 0 Z M 31.121094 -6.125 "/></g></g></g><g fill="#000000" fill-opacity="1"><g transform="translate(513.436953, 332.879034)"><g><path d="M 5.21875 -42.464844 L 5.21875 0 L 11.34375 0 L 11.34375 -29.664062 L 31.847656 0 L 36.699219 0 L 36.699219 -42.464844 L 30.632812 -42.464844 L 30.632812 -12.558594 L 9.949219 -42.464844 Z M 5.21875 -42.464844 "/></g></g></g><g fill="#545454" fill-opacity="1"><g transform="translate(218.265274, 373.964927)"><g><path d="M 1.796875 0 L 3.902344 0 L 3.902344 -6.410156 L 9.75 -6.410156 L 9.75 -8.371094 L 3.902344 -8.371094 L 3.902344 -12.691406 L 10.5 -12.691406 L 10.5 -14.738281 L 1.796875 -14.738281 Z M 1.796875 0 "/></g></g></g><g fill="#545454" fill-opacity="1"><g transform="translate(229.221653, 373.964927)"><g><path d="M 0.730469 -7.308594 C 0.730469 -3.089844 4.089844 0.269531 8.308594 0.269531 C 12.527344 0.269531 15.90625 -3.089844 15.90625 -7.308594 C 15.90625 -11.523438 12.527344 -14.90625 8.308594 -14.90625 C 4.089844 -14.90625 0.730469 -11.523438 0.730469 -7.308594 Z M 2.902344 -7.308594 C 2.902344 -10.3125 5.300781 -12.734375 8.308594 -12.734375 C 11.316406 -12.734375 13.738281 -10.3125 13.738281 -7.308594 C 13.738281 -4.300781 11.316406 -1.898438 8.308594 -1.898438 C 5.300781 -1.898438 2.902344 -4.300781 2.902344 -7.308594 Z M 2.902344 -7.308594 "/></g></g></g><g fill="#545454" fill-opacity="1"><g transform="translate(246.000566, 373.964927)"><g><path d="M 0.730469 -7.308594 C 0.730469 -3.089844 4.089844 0.269531 8.308594 0.269531 C 12.527344 0.269531 15.90625 -3.089844 15.90625 -7.308594 C 15.90625 -11.523438 12.527344 -14.90625 8.308594 -14.90625 C 4.089844 -14.90625 0.730469 -11.523438 0.730469 -7.308594 Z M 2.902344 -7.308594 C 2.902344 -10.3125 5.300781 -12.734375 8.308594 -12.734375 C 11.316406 -12.734375 13.738281 -10.3125 13.738281 -7.308594 C 13.738281 -4.300781 11.316406 -1.898438 8.308594 -1.898438 C 5.300781 -1.898438 2.902344 -4.300781 2.902344 -7.308594 Z M 2.902344 -7.308594 "/></g></g></g><g fill="#545454" fill-opacity="1"><g transform="translate(262.779479, 373.964927)"><g><path d="M 7.035156 -14.738281 L 1.796875 -14.738281 L 1.796875 0 L 7.035156 0 C 11.816406 0 14.214844 -3.632812 14.214844 -7.285156 C 14.214844 -10.9375 11.816406 -14.738281 7.035156 -14.738281 Z M 7.035156 -2.109375 L 3.902344 -2.109375 L 3.902344 -12.628906 L 7.035156 -12.628906 C 10.417969 -12.628906 12.128906 -9.875 12.128906 -7.285156 C 12.128906 -4.695312 10.417969 -2.109375 7.035156 -2.109375 Z M 7.035156 -2.109375 "/></g></g></g><g fill="#545454" fill-opacity="1"><g transform="translate(277.909714, 373.964927)"><g/></g></g><g fill="#545454" fill-opacity="1"><g transform="translate(283.106162, 373.964927)"><g><path d="M 7.035156 -14.738281 L 1.796875 -14.738281 L 1.796875 0 L 7.035156 0 C 11.816406 0 14.214844 -3.632812 14.214844 -7.285156 C 14.214844 -10.9375 11.816406 -14.738281 7.035156 -14.738281 Z M 7.035156 -2.109375 L 3.902344 -2.109375 L 3.902344 -12.628906 L 7.035156 -12.628906 C 10.417969 -12.628906 12.128906 -9.875 12.128906 -7.285156 C 12.128906 -4.695312 10.417969 -2.109375 7.035156 -2.109375 Z M 7.035156 -2.109375 "/></g></g></g><g fill="#545454" fill-opacity="1"><g transform="translate(298.236397, 373.964927)"><g><path d="M 10.710938 -2.109375 L 3.925781 -2.109375 L 3.925781 -6.410156 L 10.542969 -6.410156 L 10.542969 -8.539062 L 3.925781 -8.539062 L 3.925781 -12.652344 L 10.6875 -12.652344 L 10.6875 -14.757812 L 1.796875 -14.757812 L 1.796875 0 L 10.710938 0 Z M 10.710938 -2.109375 "/></g></g></g><g fill="#545454" fill-opacity="1"><g transform="translate(309.881463, 373.964927)"><g><path d="M 10.773438 -2.109375 L 3.902344 -2.109375 L 3.902344 -14.613281 L 1.796875 -14.613281 L 1.796875 0 L 10.773438 0 Z M 10.773438 -2.109375 "/></g></g></g><g fill="#545454" fill-opacity="1"><g transform="translate(320.754366, 373.964927)"><g><path d="M 6.617188 -12.796875 L 9.332031 -12.796875 L 9.332031 -14.738281 L 1.796875 -14.738281 L 1.796875 -12.796875 L 4.507812 -12.796875 L 4.507812 -1.960938 L 1.796875 -1.960938 L 1.796875 0 L 9.332031 0 L 9.332031 -1.960938 L 6.617188 -1.960938 Z M 6.617188 -12.796875 "/></g></g></g><g fill="#545454" fill-opacity="1"><g transform="translate(331.856823, 373.964927)"><g><path d="M 13.382812 -14.757812 L 11.128906 -14.757812 L 6.679688 -3.675781 L 2.277344 -14.757812 L -0.0195312 -14.757812 L 5.90625 0.0429688 L 7.453125 0.0429688 Z M 13.382812 -14.757812 "/></g></g></g><g fill="#545454" fill-opacity="1"><g transform="translate(345.067076, 373.964927)"><g><path d="M 10.710938 -2.109375 L 3.925781 -2.109375 L 3.925781 -6.410156 L 10.542969 -6.410156 L 10.542969 -8.539062 L 3.925781 -8.539062 L 3.925781 -12.652344 L 10.6875 -12.652344 L 10.6875 -14.757812 L 1.796875 -14.757812 L 1.796875 0 L 10.710938 0 Z M 10.710938 -2.109375 "/></g></g></g><g fill="#545454" fill-opacity="1"><g transform="translate(356.712142, 373.964927)"><g><path d="M 7.117188 -7.410156 L 4.65625 -7.410156 L 4.65625 -6.410156 L 9.980469 0 L 12.714844 0 L 8.101562 -5.492188 C 10.605469 -5.929688 11.878906 -7.890625 11.878906 -9.957031 C 11.878906 -12.273438 10.292969 -14.800781 7.117188 -14.800781 L 1.796875 -14.800781 L 1.796875 0 L 3.882812 0 L 3.882812 -12.671875 L 7.117188 -12.671875 C 8.894531 -12.671875 9.769531 -11.210938 9.769531 -9.957031 C 9.769531 -8.683594 8.894531 -7.410156 7.117188 -7.410156 Z M 7.117188 -7.410156 "/></g></g></g><g fill="#545454" fill-opacity="1"><g transform="translate(369.150233, 373.964927)"><g><path d="M 6.285156 -8.183594 L 2.171875 -14.882812 L -0.3125 -14.882812 L 5.21875 -5.949219 L 5.21875 0 L 7.347656 0 L 7.347656 -5.949219 L 12.941406 -14.882812 L 10.4375 -14.882812 Z M 6.285156 -8.183594 "/></g></g></g></svg>